<svg xmlns="http://www.w3.org/2000/svg" xmlns:xlink="http://www.w3.org/1999/xlink" xmlns:inkscape="http://www.inkscape.org/namespaces/inkscape" version="1.1" width="595.2756" height="841.8898" viewBox="0 0 595.2756 841.8898">
<path transform="matrix(1,0,0,-1,0,841.8898)" d="M144.3648 329.7572H152.9405V281.0642H144.3648ZM329.22 510.7796 332.2843 514.0083 359.9597 457.7085 355.7455 456.7637ZM376.761 423.5275 415.4525 344.8171C416.5554 343.156 417.7437 342.2032 419.0513 342.2803L418.2854 338.1296C415.6756 338.5984 413.441 340.3006 411.5466 343.1262L372.8571 421.9157C374.1625 422.4501 375.4627 422.9878 376.761 423.5275ZM273.6873 537.0888C284.4074 537.3017 283.949 557.8087 273.6873 559.4049L212.8535 559.7101C96.0148 558.2064 57.528 365.1163 219.7125 346.0867 231.6076 346.5626 242.591 350.553 249.9928 358.4061L287.3409 432.3396 280.8867 443.7465C285.2195 444.2397 289.5664 444.7888 293.934 445.3911L329.1041 515.0103C332.6224 522.6559 336.3231 523.1988 340.2507 515.1606L367.3278 459.3994C371.3933 460.3462 375.467 461.3165 379.5508 462.3075 384.1413 463.4206 388.7895 464.5823 393.48 465.7847L350.7919 553.0955C342.3444 562.6706 333.6009 564.5075 324.3385 552.5589L238.4946 384.8647C234.3685 377.0328 228.6811 372.5606 221.6985 370.8748 119.3309 366.9636 92.2836 523.8164 216.6454 538.1447ZM383.3921 426.3171 421.3406 348.1671C431.9124 343.6053 441.7455 343.5024 450.6863 348.7788L407.5316 437.0434C399.6196 433.3861 391.5825 429.806 383.3921 426.3171ZM194.9451 329.7572 220.3829 296.5433V329.7572H228.9589V285.3454 281.0642H222.565L197.1283 314.2769 197.1275 281.0642H188.5516V325.4749 329.7572ZM393.5191 298.6166 414.214 298.6177 403.867 320.7722ZM399.67 329.7572H408.0628 408.246L430.9875 281.0642H422.4115L417.9288 290.6629 389.804 290.6617 385.3213 281.0642H376.7457L399.4872 329.7572ZM338.1928 329.7572H346.7687V281.0642H338.1928ZM263.1163 329.7572H266.8958V329.8303H283.7565C296.3083 329.8303 306.5774 319.5615 306.5774 307.0097V303.8117C306.5774 291.2598 296.3083 280.9911 283.7565 280.9911H266.8958V281.0642H263.1163ZM271.692 321.607V289.2144H283.7565C291.7857 289.2144 298.3541 295.7828 298.3541 303.8117V307.0097C298.3541 315.0386 291.7857 321.607 283.7565 321.607Z" fill="#1370a2" fill-rule="evenodd"/>
<path transform="matrix(1,0,0,-1,0,841.8898)" d="M280.8867 443.7459C312.9032 447.3933 345.9098 454.146 379.5511 462.3069 404.0997 468.2619 430.3667 475.6518 455.3218 482.7498 412.7876 458.6 359.6349 444.8662 311.2163 431.1017L325.4287 402.15 308.6739 394.6382Z" fill="#f4772d" fill-rule="evenodd"/>
<path transform="matrix(1,0,0,-1,0,841.8898)" d="M328.4164 424.6472C381.1516 439.6654 432.7727 457.3332 483.9551 476.0436 443.9103 454.0578 402.3816 432.9658 355.5476 415.0644L369.324 387.8623 354.1042 379.2484Z" fill="#6bbb4f" fill-rule="evenodd"/>
</svg>
